<?xml version="1.0" standalone="no"?><!DOCTYPE svg PUBLIC "-//W3C//DTD SVG 1.1//EN" "http://www.w3.org/Graphics/SVG/1.1/DTD/svg11.dtd"><svg class="icon" width="500px" height="500.00px" viewBox="0 0 1024 1024" version="1.1" xmlns="http://www.w3.org/2000/svg"><path fill="#ffffff" d="M240 658.08h220.784l55.744 65.04 55.744-65.04h220.768V272H240v386.08z m-48 32V240a16 16 0 0 1 16-16h617.04a16 16 0 0 1 16 16v450.08a16 16 0 0 1-16 16H594.336l-65.664 76.64a16 16 0 0 1-24.304 0l-65.664-76.64H208a16 16 0 0 1-16-16zM366.256 498.56a33.488 33.488 0 1 1 0-66.992 33.488 33.488 0 0 1 0 66.992z m150.272 0a33.488 33.488 0 1 1 0-66.992 33.488 33.488 0 0 1 0 66.992z m150.24 0a33.488 33.488 0 1 1 0-66.992 33.488 33.488 0 0 1 0 66.992z" /></svg>